<svg width="395" height="77" viewBox="0 0 395 77" fill="none" xmlns="http://www.w3.org/2000/svg">
<g clip-path="url(#clip0_488_22528)">
<path d="M11.4102 0H0V11.4102H11.4102V0Z" fill="#84C4C8"/>
<path d="M38.9586 12.4036C39.9087 12.8912 40.8187 13.4531 41.6802 14.0841H56.3971C48.9876 1.88472 33.6584 -0.680365 19.9961 0.17693V9.81809C25.9904 9.73644 33.9645 9.52552 38.9654 12.4036" fill="#3A3875"/>
<path d="M48.9292 30.6858C48.9292 35.0539 47.9903 38.8505 45.9219 42.1368H58.3867C60.5623 36.1568 60.9895 29.6808 59.6182 23.4668H47.8202C48.5635 25.7983 48.9377 28.2318 48.9292 30.679" fill="#3A3875"/>
<path d="M38.0625 52.7439V60.0241C43.0576 58.9445 47.6217 56.4115 51.1805 52.7439H38.0625Z" fill="#3A3875"/>
<path d="M23.8682 51.8868H11.3966V19.8879H0V61.528H23.8682V51.8868Z" fill="#3A3875"/>
<path d="M67.5481 21.6636V15.853H25.6836V73.2033H36.3385V51.247H64.0305V44.5316V43.9532H35.9235V21.6636H67.5481Z" fill="#84C4C8"/>
<path d="M148.312 16.3635H141.746V51.7303H148.312V16.3635Z" fill="#3A3875"/>
<path d="M164.96 21.8679V32.6249H182.038V38.1837H164.96V51.7235H158.395V16.3635H184.209V21.8679H164.96Z" fill="#3A3875"/>
<path d="M216.14 51.3844L208.914 41.0425C208.462 41.0814 208.008 41.0973 207.554 41.0901H199.566V51.3844H193V16.004H207.554C210.309 15.9482 213.044 16.4745 215.582 17.5485C217.72 18.4448 219.542 19.9586 220.814 21.8962C222.062 23.9119 222.694 26.2485 222.631 28.6185C222.696 31.0536 222.017 33.4507 220.685 35.4905C219.315 37.4676 217.362 38.9683 215.099 39.7837L223.264 51.4048L216.14 51.3844ZM213.766 23.3931C212.282 22.182 210.11 21.5764 207.247 21.5764H199.566V35.6878H207.247C210.11 35.6878 212.282 35.0731 213.766 33.8439C214.514 33.2017 215.104 32.3955 215.49 31.488C215.876 30.5805 216.047 29.5962 215.99 28.6117C216.048 27.631 215.877 26.6504 215.491 25.7472C215.105 24.8439 214.514 24.0427 213.766 23.4067" fill="#3A3875"/>
<path d="M259.08 46.2191V51.7235H232.559V16.3635H258.379V21.8679H239.124V31.06H256.202V36.4691H239.124V46.2191H259.08Z" fill="#3A3875"/>
<path d="M275.495 16.3635H268.93V51.7303H275.495V16.3635Z" fill="#3A3875"/>
<path d="M356.53 16.3635V51.7235H349.964V36.5712H331.675V51.7235H325.109V16.3635H331.675V30.9647H349.964V16.3635H356.53Z" fill="#3A3875"/>
<path d="M375.731 21.9155H364.008V16.3635H394.02V21.9155H382.297V51.7235H375.731V21.9155Z" fill="#3A3875"/>
<path d="M105.963 15.853H99.3906V22.4256H105.963V15.853Z" fill="#84C4C8"/>
<path d="M131.723 24.2696C130.101 21.5861 127.739 19.4287 124.919 18.0576C121.782 16.5422 118.332 15.787 114.849 15.8531H110.461V21.4119H114.543C116.91 21.3623 119.255 21.8729 121.388 22.902C123.291 23.8347 124.873 25.3127 125.933 27.1476C127.023 29.0974 127.573 31.3031 127.525 33.5365C127.573 35.77 127.023 37.9757 125.933 39.9254C124.873 41.7609 123.291 43.239 121.388 44.1711C119.256 45.2007 116.91 45.7112 114.543 45.6611H105.956V27.2157H99.3906V51.2199H114.849C118.327 51.2861 121.772 50.5332 124.905 49.0223C127.725 47.6511 130.088 45.4938 131.709 42.8103C133.359 40.005 134.197 36.7969 134.131 33.5433C134.198 30.2874 133.36 27.077 131.709 24.2696" fill="#3A3875"/>
<path d="M315.944 34.04H309.719V38.1836H315.944V34.04Z" fill="#84C4C8"/>
<path d="M309.726 40.5105V44.6541C307.507 45.8987 304.996 46.526 302.453 46.4707C300.152 46.51 297.88 45.9521 295.86 44.8514C293.965 43.8158 292.393 42.2786 291.315 40.4084C290.201 38.4657 289.632 36.2585 289.668 34.0195C289.626 31.757 290.192 29.5247 291.308 27.5558C292.379 25.6923 293.954 24.1688 295.853 23.1605C297.902 22.0898 300.188 21.5517 302.5 21.5956C304.315 21.568 306.117 21.9123 307.794 22.6074C309.47 23.3024 310.987 24.3335 312.25 25.6371L316.38 21.616C314.71 19.7176 312.611 18.2457 310.257 17.3227C307.682 16.3192 304.937 15.8225 302.174 15.8599C298.754 15.8068 295.375 16.614 292.349 18.2072C289.513 19.6998 287.145 21.9459 285.504 24.6982C283.845 27.521 282.993 30.7455 283.041 34.0195C282.992 37.3041 283.849 40.5387 285.518 43.3681C287.149 46.1138 289.502 48.359 292.322 49.8591C295.326 51.4628 298.687 52.2797 302.092 52.2336C304.632 52.2379 307.157 51.8453 309.576 51.0702C311.885 50.3582 314.044 49.2281 315.945 47.7363V40.5105H309.726Z" fill="#3A3875"/>
<path d="M100.468 60.2827H99.0938V73.2986H100.468V60.2827Z" fill="#84C4C8"/>
<path d="M112.905 64.5148C113.289 64.933 113.583 65.425 113.77 65.9608C113.957 66.4966 114.033 67.0648 113.994 67.631V73.3054H112.674V67.7602C112.733 66.9149 112.46 66.0797 111.912 65.4333C111.625 65.155 111.283 64.9398 110.908 64.8015C110.533 64.6632 110.133 64.605 109.735 64.6304C109.275 64.6065 108.816 64.6775 108.385 64.839C107.954 65.0006 107.561 65.2492 107.231 65.5694C106.913 65.9187 106.668 66.3279 106.51 66.773C106.353 67.2181 106.285 67.6902 106.312 68.1617V73.2918H104.992V63.5214H106.258V65.3176C106.62 64.7329 107.138 64.2614 107.755 63.9569C108.445 63.6136 109.209 63.4432 109.979 63.4602C110.514 63.4332 111.048 63.5138 111.551 63.6973C112.053 63.8808 112.514 64.1634 112.905 64.5284" fill="#84C4C8"/>
<path d="M123.288 72.7067C123.021 72.9401 122.708 73.114 122.369 73.217C122 73.3353 121.614 73.395 121.226 73.3939C120.842 73.4366 120.452 73.3926 120.087 73.2651C119.721 73.1376 119.389 72.9298 119.114 72.657C118.839 72.3843 118.629 72.0534 118.499 71.6888C118.369 71.3241 118.322 70.935 118.362 70.5499V64.6373H116.613V63.5214H118.389V61.385H119.709V63.5214H122.682V64.6373H119.682V70.4751C119.661 70.7194 119.688 70.9655 119.763 71.1992C119.838 71.4328 119.958 71.6492 120.117 71.8358C120.284 71.995 120.482 72.1178 120.699 72.1963C120.915 72.2748 121.146 72.3073 121.376 72.2917C121.644 72.2923 121.911 72.2486 122.165 72.1624C122.414 72.0835 122.646 71.9563 122.846 71.7882L123.288 72.7067Z" fill="#84C4C8"/>
<path d="M134.406 68.8217H126.241C126.261 69.2897 126.375 69.7488 126.577 70.1719C126.778 70.595 127.062 70.9734 127.412 71.2847C128.153 71.9226 129.108 72.2578 130.086 72.2236C130.66 72.2296 131.229 72.1185 131.759 71.897C132.266 71.6813 132.718 71.3532 133.079 70.9377L133.821 71.795C133.384 72.3182 132.826 72.7269 132.195 72.9857C131.513 73.2643 130.781 73.4031 130.045 73.3939C129.116 73.4119 128.197 73.1917 127.378 72.7543C126.62 72.3431 125.993 71.7279 125.568 70.9785C125.117 70.1993 124.882 69.3138 124.887 68.4134C124.874 67.519 125.089 66.6359 125.513 65.8483C125.908 65.1119 126.499 64.4995 127.221 64.0793C127.964 63.6526 128.807 63.434 129.664 63.4466C130.518 63.4353 131.359 63.6538 132.099 64.0793C132.816 64.4963 133.402 65.104 133.794 65.8347C134.213 66.6284 134.424 67.5158 134.406 68.4134V68.8217ZM127.316 65.4877C126.669 66.1064 126.28 66.9477 126.228 67.8419H133.161C133.11 66.9475 132.721 66.106 132.072 65.4877C131.415 64.9061 130.568 64.585 129.691 64.585C128.814 64.585 127.966 64.9061 127.31 65.4877" fill="#84C4C8"/>
<path d="M140.331 63.9569C141.037 63.6007 141.821 63.4276 142.611 63.4535V64.7394H142.298C141.851 64.7152 141.404 64.7871 140.987 64.9503C140.571 65.1134 140.194 65.364 139.882 65.6851C139.262 66.4279 138.951 67.38 139.011 68.3455V73.3259H137.691V63.5215H138.957V65.4402C139.238 64.8097 139.715 64.2869 140.318 63.9501" fill="#84C4C8"/>
<path d="M153.456 64.5148C153.84 64.933 154.134 65.425 154.321 65.9608C154.508 66.4966 154.584 67.0648 154.545 67.631V73.3054H153.225V67.7602C153.284 66.9149 153.011 66.0797 152.463 65.4333C152.176 65.155 151.834 64.9398 151.459 64.8015C151.084 64.6632 150.684 64.605 150.285 64.6304C149.826 64.6065 149.366 64.6775 148.936 64.839C148.505 65.0006 148.112 65.2492 147.781 65.5694C147.464 65.9187 147.219 66.3279 147.061 66.773C146.903 67.2181 146.836 67.6902 146.863 68.1617V73.2918H145.543V63.5214H146.808V65.3176C147.17 64.7327 147.689 64.2611 148.305 63.9569C148.996 63.6136 149.759 63.4432 150.53 63.4602C151.065 63.4332 151.599 63.5138 152.102 63.6973C152.604 63.8808 153.065 64.1634 153.456 64.5284" fill="#84C4C8"/>
<path d="M165.05 64.4059C165.409 64.7809 165.686 65.2273 165.862 65.7161C166.038 66.2048 166.109 66.7251 166.071 67.2431V73.3054H164.805V71.7813C164.496 72.3001 164.038 72.7147 163.492 72.972C162.853 73.2693 162.155 73.416 161.451 73.4007C160.518 73.4506 159.596 73.1739 158.845 72.6182C158.546 72.3709 158.304 72.0617 158.136 71.7121C157.968 71.3624 157.878 70.9806 157.871 70.5927C157.865 70.2048 157.943 69.8201 158.099 69.4651C158.255 69.11 158.486 68.793 158.777 68.5359C159.617 67.9574 160.632 67.688 161.648 67.7738H164.751V67.1819C164.779 66.8311 164.733 66.4784 164.616 66.1466C164.499 65.8148 164.313 65.5115 164.07 65.2564C163.501 64.7779 162.771 64.5346 162.029 64.576C161.422 64.5743 160.819 64.6779 160.247 64.8821C159.707 65.0673 159.209 65.3536 158.777 65.7258L158.185 64.7393C158.69 64.3178 159.269 63.9947 159.893 63.7867C160.602 63.5563 161.344 63.4414 162.09 63.4465C163.157 63.3751 164.21 63.7188 165.03 64.4059M163.54 71.8426C164.083 71.4896 164.501 70.9724 164.73 70.3661V68.7672H161.662C159.988 68.7672 159.151 69.3501 159.151 70.5158C159.143 70.7813 159.2 71.0447 159.319 71.2823C159.438 71.5199 159.614 71.7241 159.832 71.8766C160.369 72.2374 161.009 72.4119 161.655 72.3733C162.331 72.3937 162.997 72.2163 163.574 71.863" fill="#84C4C8"/>
<path d="M175.37 72.7067C175.103 72.9401 174.79 73.114 174.451 73.217C174.082 73.3353 173.696 73.395 173.308 73.3939C172.924 73.4366 172.534 73.3926 172.169 73.2651C171.803 73.1376 171.471 72.9298 171.196 72.657C170.921 72.3843 170.711 72.0534 170.581 71.6888C170.451 71.3241 170.404 70.935 170.444 70.5499V64.6373H168.695V63.5214H170.444V61.385H171.764V63.5214H174.737V64.6373H171.764V70.4751C171.743 70.7194 171.771 70.9654 171.846 71.199C171.92 71.4325 172.041 71.649 172.199 71.8358C172.366 71.9947 172.564 72.1172 172.781 72.1957C172.998 72.2741 173.228 72.3068 173.458 72.2917C173.726 72.2923 173.993 72.2486 174.247 72.1624C174.496 72.0835 174.728 71.9563 174.928 71.7882L175.37 72.7067Z" fill="#84C4C8"/>
<path d="M178.311 61.1062C178.22 61.0184 178.148 60.9125 178.1 60.7954C178.052 60.6782 178.029 60.5523 178.032 60.4258C178.027 60.2991 178.05 60.1728 178.098 60.0555C178.146 59.9381 178.219 59.8324 178.311 59.7454C178.399 59.6552 178.505 59.5839 178.622 59.536C178.739 59.488 178.865 59.4644 178.991 59.4664C179.245 59.4635 179.49 59.5614 179.672 59.7386C179.76 59.8202 179.83 59.9192 179.878 60.0292C179.926 60.1393 179.951 60.2581 179.951 60.3782C179.948 60.5684 179.889 60.7536 179.782 60.9109C179.675 61.0681 179.524 61.1905 179.348 61.2629C179.172 61.3353 178.979 61.3546 178.792 61.3182C178.605 61.2819 178.433 61.1916 178.297 61.0585M178.297 63.4739H179.624V73.258H178.331L178.297 63.4739Z" fill="#84C4C8"/>
<path d="M185.339 72.7543C184.594 72.3367 183.977 71.7224 183.557 70.9785C183.13 70.1909 182.906 69.3092 182.906 68.4134C182.906 67.5175 183.13 66.6359 183.557 65.8483C183.976 65.1049 184.593 64.4925 185.339 64.0793C186.124 63.6635 186.999 63.446 187.888 63.446C188.776 63.446 189.651 63.6635 190.436 64.0793C191.182 64.4908 191.797 65.1038 192.211 65.8483C192.633 66.6375 192.854 67.5186 192.854 68.4134C192.854 69.3082 192.633 70.1892 192.211 70.9785C191.795 71.7235 191.181 72.3383 190.436 72.7543C189.652 73.1753 188.777 73.3957 187.888 73.3957C186.998 73.3957 186.123 73.1753 185.339 72.7543ZM189.755 71.7473C190.309 71.429 190.759 70.9561 191.048 70.3865C191.354 69.7679 191.514 69.0868 191.514 68.3964C191.514 67.706 191.354 67.0249 191.048 66.4062C190.758 65.8368 190.309 65.364 189.755 65.0454C189.182 64.7352 188.54 64.5727 187.888 64.5727C187.235 64.5727 186.593 64.7352 186.02 65.0454C185.467 65.3678 185.017 65.8395 184.72 66.4062C184.409 67.0234 184.246 67.705 184.246 68.3964C184.246 69.0877 184.409 69.7694 184.72 70.3865C185.017 70.9533 185.467 71.4249 186.02 71.7473C186.593 72.0576 187.235 72.22 187.888 72.22C188.54 72.22 189.182 72.0576 189.755 71.7473Z" fill="#84C4C8"/>
<path d="M204.015 64.5148C204.398 64.933 204.692 65.425 204.88 65.9608C205.067 66.4966 205.143 67.0648 205.103 67.631V73.3054H203.783V67.7602C203.843 66.9149 203.569 66.0797 203.021 65.4333C202.734 65.155 202.392 64.9398 202.017 64.8015C201.643 64.6632 201.243 64.605 200.844 64.6304C200.384 64.6065 199.925 64.6775 199.494 64.839C199.063 65.0006 198.67 65.2492 198.34 65.5694C198.022 65.9187 197.777 66.3279 197.62 66.773C197.462 67.2181 197.395 67.6902 197.422 68.1617V73.2918H196.102V63.5214H197.367V65.3176C197.729 64.7327 198.247 64.2611 198.864 63.9569C199.554 63.6136 200.318 63.4432 201.089 63.4602C201.623 63.4332 202.158 63.5138 202.66 63.6973C203.163 63.8808 203.623 64.1634 204.015 64.5284" fill="#84C4C8"/>
<path d="M215.61 64.406C215.969 64.7811 216.246 65.2274 216.421 65.7162C216.597 66.205 216.668 66.7252 216.63 67.2432V73.3055H215.365V71.7814C215.056 72.3005 214.598 72.7151 214.052 72.9721C213.413 73.2694 212.715 73.4161 212.01 73.4008C211.08 73.4491 210.161 73.1725 209.411 72.6183C209.113 72.371 208.871 72.0618 208.703 71.7122C208.535 71.3626 208.444 70.9807 208.438 70.5928C208.431 70.2049 208.509 69.8203 208.665 69.4652C208.822 69.1102 209.053 68.7932 209.343 68.536C210.183 67.9575 211.198 67.6882 212.215 67.7739H215.317V67.182C215.345 66.8312 215.299 66.4785 215.182 66.1467C215.065 65.8149 214.879 65.5116 214.637 65.2565C214.067 64.7787 213.338 64.5354 212.596 64.5761C211.988 64.5744 211.385 64.678 210.813 64.8823C210.274 65.0672 209.775 65.3536 209.343 65.7259L208.751 64.7394C209.278 64.299 209.886 63.9661 210.541 63.7596C211.248 63.5298 211.988 63.4149 212.732 63.4194C213.799 63.348 214.852 63.6917 215.671 64.3788M214.181 71.8155C214.725 71.4625 215.142 70.9453 215.372 70.339V68.7401H212.303C210.629 68.7401 209.792 69.323 209.792 70.4887C209.784 70.7542 209.842 71.0176 209.96 71.2552C210.079 71.4928 210.255 71.697 210.473 71.8495C211.01 72.2103 211.65 72.3848 212.296 72.3462C212.972 72.3666 213.639 72.1892 214.215 71.8359" fill="#84C4C8"/>
<path d="M222.101 59.5071H220.781V73.3054H222.101V59.5071Z" fill="#84C4C8"/>
<path d="M232.047 60.2827H233.421V72.1079H240.715V73.2986H232.047V60.2827Z" fill="#84C4C8"/>
<path d="M244.582 72.7543C243.836 72.337 243.219 71.7226 242.799 70.9785C242.372 70.1909 242.148 69.3092 242.148 68.4134C242.148 67.5175 242.372 66.6359 242.799 65.8483C243.218 65.1047 243.835 64.4922 244.582 64.0793C245.367 63.6635 246.241 63.446 247.13 63.446C248.018 63.446 248.893 63.6635 249.678 64.0793C250.424 64.4908 251.039 65.1038 251.454 65.8483C251.875 66.6375 252.096 67.5186 252.096 68.4134C252.096 69.3082 251.875 70.1892 251.454 70.9785C251.038 71.7237 250.423 72.3385 249.678 72.7543C248.894 73.1753 248.019 73.3957 247.13 73.3957C246.24 73.3957 245.365 73.1753 244.582 72.7543ZM248.997 71.7473C249.551 71.4287 250 70.9559 250.29 70.3865C250.597 69.768 250.757 69.0869 250.757 68.3964C250.757 67.7059 250.597 67.0247 250.29 66.4062C250 65.8368 249.551 65.364 248.997 65.0454C248.424 64.7352 247.782 64.5727 247.13 64.5727C246.478 64.5727 245.836 64.7352 245.262 65.0454C244.71 65.3678 244.259 65.8395 243.962 66.4062C243.651 67.0234 243.489 67.705 243.489 68.3964C243.489 69.0877 243.651 69.7694 243.962 70.3865C244.259 70.9533 244.71 71.4249 245.262 71.7473C245.836 72.0576 246.478 72.22 247.13 72.22C247.782 72.22 248.424 72.0576 248.997 71.7473Z" fill="#84C4C8"/>
<path d="M264.405 63.5213V72.1215C264.405 73.7817 263.999 75.0132 263.187 75.816C262.684 76.2478 262.1 76.5758 261.47 76.7813C260.839 76.9868 260.174 77.0657 259.513 77.0135C258.638 77.0177 257.767 76.8821 256.934 76.6121C256.202 76.3895 255.527 76.0112 254.954 75.503L255.635 74.4961C256.137 74.9372 256.722 75.2727 257.356 75.4826C258.041 75.72 258.761 75.8396 259.486 75.8364C260.471 75.9172 261.449 75.6068 262.207 74.9723C262.524 74.605 262.765 74.178 262.914 73.7165C263.064 73.255 263.12 72.7682 263.078 72.2848V71.0329C262.683 71.6426 262.127 72.1321 261.473 72.4481C260.785 72.7764 260.03 72.9417 259.268 72.9312C258.398 72.9414 257.54 72.7332 256.771 72.3256C256.035 71.9372 255.422 71.3503 255.002 70.6314C254.581 69.8801 254.359 69.0332 254.359 68.1718C254.359 67.3104 254.581 66.4635 255.002 65.7122C255.421 65.0023 256.028 64.4227 256.757 64.0384C257.532 63.6358 258.395 63.4323 259.268 63.4465C260.048 63.4352 260.819 63.6077 261.52 63.95C262.181 64.2779 262.741 64.7787 263.14 65.3992V63.5213H264.405ZM261.316 71.305C261.883 71.0211 262.355 70.5792 262.677 70.0327C262.998 69.4671 263.163 68.8258 263.153 68.1752C263.164 67.5267 262.999 66.8873 262.677 66.3246C262.364 65.7877 261.906 65.3493 261.357 65.059C260.762 64.7625 260.106 64.6081 259.442 64.6081C258.777 64.6081 258.121 64.7625 257.526 65.059C256.974 65.3453 256.516 65.7847 256.206 66.3246C255.895 66.8955 255.733 67.5353 255.733 68.1854C255.733 68.8355 255.895 69.4753 256.206 70.0463C256.518 70.5863 256.975 71.0274 257.526 71.3186C258.113 71.6286 258.768 71.7854 259.431 71.7745C260.099 71.785 260.759 71.6283 261.35 71.3186" fill="#84C4C8"/>
<path d="M268.647 61.1061C268.556 61.0181 268.484 60.9122 268.436 60.7951C268.388 60.678 268.365 60.5523 268.368 60.4257C268.363 60.299 268.386 60.1728 268.434 60.0554C268.482 59.9381 268.555 59.8324 268.647 59.7453C268.736 59.6555 268.842 59.5844 268.958 59.5365C269.075 59.4886 269.201 59.4647 269.327 59.4664C269.581 59.4635 269.826 59.5614 270.008 59.7385C270.096 59.8202 270.166 59.9191 270.214 60.0292C270.262 60.1392 270.287 60.258 270.286 60.3781C270.284 60.5684 270.225 60.7536 270.118 60.9108C270.011 61.0681 269.86 61.1905 269.684 61.2629C269.508 61.3353 269.315 61.3545 269.128 61.3182C268.941 61.2819 268.769 61.1916 268.633 61.0585M268.633 63.4739H269.953V73.2579H268.633V63.4739Z" fill="#84C4C8"/>
<path d="M274.564 73.0538C273.946 72.8795 273.368 72.586 272.863 72.1897L273.462 71.1487C273.927 71.4989 274.45 71.7659 275.007 71.938C275.63 72.1429 276.282 72.2463 276.939 72.2441C277.625 72.2923 278.31 72.1486 278.919 71.8291C279.119 71.7041 279.283 71.5293 279.395 71.3217C279.507 71.1142 279.563 70.881 279.558 70.6452C279.567 70.486 279.539 70.327 279.478 70.1799C279.417 70.0327 279.323 69.9011 279.205 69.7947C278.944 69.5784 278.64 69.4206 278.313 69.332C277.843 69.2031 277.366 69.1009 276.884 69.0259C276.236 68.9125 275.596 68.7603 274.966 68.57C274.49 68.4216 274.063 68.1492 273.727 67.7808C273.365 67.3505 273.183 66.7975 273.217 66.2363C273.206 65.8383 273.293 65.4437 273.471 65.0875C273.649 64.7314 273.912 64.4248 274.238 64.1951C275.074 63.6286 276.073 63.3536 277.082 63.4126C277.723 63.4134 278.361 63.498 278.98 63.6644C279.533 63.8051 280.059 64.0349 280.538 64.3448L279.96 65.4062C279.109 64.8341 278.1 64.5416 277.075 64.5693C276.409 64.5254 275.746 64.6818 275.17 65.0184C274.972 65.1421 274.809 65.3148 274.697 65.5198C274.585 65.7247 274.527 65.9551 274.53 66.1886C274.523 66.3544 274.551 66.5197 274.614 66.6735C274.676 66.8273 274.77 66.9659 274.891 67.0799C275.15 67.3117 275.46 67.4795 275.796 67.5698C276.286 67.7057 276.784 67.8148 277.286 67.8964C277.92 68.0113 278.547 68.1612 279.164 68.3455C279.628 68.4869 280.046 68.75 280.375 69.1075C280.729 69.5204 280.91 70.0545 280.878 70.5976C280.889 71.0006 280.796 71.3996 280.609 71.7568C280.422 72.1141 280.147 72.4176 279.81 72.6388C278.922 73.189 277.886 73.4526 276.844 73.394C276.07 73.3967 275.302 73.2797 274.564 73.047" fill="#84C4C8"/>
<path d="M289.024 72.7067C288.758 72.9402 288.445 73.1142 288.106 73.217C287.736 73.3353 287.351 73.395 286.963 73.3939C286.578 73.4366 286.188 73.3926 285.823 73.2651C285.457 73.1376 285.125 72.9298 284.85 72.657C284.576 72.3843 284.365 72.0534 284.235 71.6888C284.105 71.3241 284.058 70.935 284.098 70.5499V64.6373H282.363V63.5214H284.112V61.385H285.432V63.5214H288.405V64.6373H285.432V70.4751C285.411 70.7194 285.438 70.9655 285.513 71.1992C285.588 71.4328 285.708 71.6492 285.867 71.8358C286.034 71.9947 286.232 72.1172 286.449 72.1957C286.666 72.2741 286.896 72.3068 287.126 72.2917C287.394 72.2924 287.661 72.2487 287.915 72.1624C288.164 72.0837 288.396 71.9565 288.596 71.7882L289.024 72.7067Z" fill="#84C4C8"/>
<path d="M291.963 61.1062C291.872 61.0184 291.8 60.9125 291.752 60.7954C291.704 60.6782 291.681 60.5523 291.684 60.4258C291.68 60.2991 291.702 60.1728 291.75 60.0555C291.798 59.9381 291.871 59.8324 291.963 59.7454C292.052 59.6552 292.158 59.5839 292.275 59.536C292.392 59.488 292.517 59.4644 292.644 59.4664C292.897 59.4635 293.142 59.5614 293.324 59.7386C293.412 59.8199 293.483 59.9188 293.531 60.029C293.579 60.1391 293.603 60.258 293.603 60.3782C293.6 60.5684 293.541 60.7536 293.434 60.9109C293.327 61.0681 293.176 61.1905 293 61.2629C292.824 61.3353 292.631 61.3546 292.444 61.3182C292.258 61.2819 292.085 61.1916 291.95 61.0585M291.95 63.4739H293.269V73.258H291.95V63.4739Z" fill="#84C4C8"/>
<path d="M298.998 72.7612C298.244 72.3497 297.621 71.7343 297.201 70.9854C296.774 70.1954 296.551 69.3115 296.551 68.4135C296.551 67.5155 296.774 66.6316 297.201 65.8416C297.624 65.0962 298.246 64.4835 298.998 64.0726C299.793 63.6432 300.686 63.4253 301.59 63.4398C302.371 63.4253 303.144 63.593 303.849 63.9297C304.501 64.2485 305.047 64.7495 305.42 65.3722L304.434 66.0526C304.132 65.5854 303.709 65.2091 303.209 64.9639C302.705 64.7202 302.15 64.5968 301.59 64.6033C300.924 64.5935 300.268 64.7577 299.685 65.0796C299.122 65.3959 298.664 65.8686 298.365 66.4404C298.054 67.0589 297.892 67.7416 297.892 68.4339C297.892 69.1263 298.054 69.809 298.365 70.4275C298.665 70.9986 299.123 71.471 299.685 71.7883C300.268 72.1102 300.924 72.2743 301.59 72.2645C302.149 72.2698 302.703 72.1489 303.209 71.9107C303.709 71.6695 304.133 71.2952 304.434 70.8289L305.42 71.5093C305.044 72.1344 304.493 72.6358 303.835 72.9517C303.132 73.2867 302.362 73.4544 301.583 73.4416C300.679 73.457 299.786 73.2391 298.991 72.8088" fill="#84C4C8"/>
<path d="M308.9 73.0538C308.282 72.8795 307.704 72.586 307.199 72.1897L307.798 71.1487C308.263 71.499 308.786 71.7661 309.342 71.938C309.966 72.1429 310.618 72.2463 311.275 72.2441C311.96 72.2923 312.646 72.1486 313.255 71.8291C313.455 71.7041 313.619 71.5293 313.731 71.3217C313.843 71.1142 313.899 70.881 313.894 70.6452C313.902 70.486 313.875 70.327 313.814 70.1799C313.753 70.0327 313.659 69.9011 313.54 69.7947C313.28 69.5784 312.976 69.4206 312.649 69.332C312.179 69.2031 311.702 69.1009 311.22 69.0259C310.572 68.9125 309.931 68.7603 309.302 68.57C308.826 68.4213 308.399 68.1489 308.063 67.7808C307.701 67.3505 307.519 66.7975 307.553 66.2363C307.542 65.8383 307.629 65.4437 307.807 65.0875C307.985 64.7314 308.248 64.4248 308.574 64.1951C309.41 63.6286 310.409 63.3536 311.418 63.4126C312.059 63.4134 312.697 63.498 313.316 63.6644C313.869 63.8051 314.395 64.0349 314.874 64.3448L314.343 65.4198C313.492 64.8477 312.484 64.5552 311.458 64.5829C310.793 64.5395 310.129 64.6958 309.553 65.032C309.353 65.1541 309.187 65.326 309.073 65.5311C308.958 65.7362 308.899 65.9674 308.9 66.2022C308.893 66.368 308.921 66.5334 308.984 66.6871C309.046 66.8409 309.14 66.9795 309.261 67.0936C309.52 67.3253 309.83 67.4931 310.166 67.5834C310.656 67.7195 311.153 67.8285 311.656 67.91C312.29 68.0248 312.917 68.1748 313.534 68.3591C313.998 68.5005 314.416 68.7636 314.745 69.1211C315.099 69.534 315.28 70.0681 315.248 70.6112C315.259 71.0142 315.166 71.4132 314.979 71.7704C314.792 72.1277 314.517 72.4312 314.18 72.6524C313.292 73.2026 312.256 73.4662 311.214 73.4076C310.44 73.4104 309.671 73.2933 308.934 73.0606" fill="#84C4C8"/>
</g>
<defs>
<clipPath id="clip0_488_22528">
<rect width="394.022" height="77" fill="white"/>
</clipPath>
</defs>
</svg>
